<svg width="48" height="48" viewBox="0 0 48 48" fill="none" xmlns="http://www.w3.org/2000/svg">
  <!-- Oven Mitt Base -->
  <path d="M12 20C12 16.6863 14.6863 14 18 14H30C33.3137 14 36 16.6863 36 20V28C36 31.3137 33.3137 34 30 34H18C14.6863 34 12 31.3137 12 28V20Z" fill="#F97316"/>

  <!-- Oven Mitt Cuff -->
  <path d="M10 26C10 24.8954 10.8954 24 12 24H36C37.1046 24 38 24.8954 38 26V30C38 31.1046 37.1046 32 36 32H12C10.8954 32 10 31.1046 10 30V26Z" fill="#EA580C"/>

  <!-- Heart -->
  <path d="M24 8C26.5 8 28.5 9.5 30 11C31.5 12.5 32 14 32 16C32 20 30 22 28 24C26 26 24 28 24 28C24 28 22 26 20 24C18 22 16 20 16 16C16 14 16.5 12.5 18 11C19.5 9.5 21.5 8 24 8Z" fill="#EF4444"/>

  <!-- Heart Highlight -->
  <path d="M22 12C22.5 11.5 23.5 11 24 11C24.5 11 25.5 11.5 26 12C26.5 12.5 26.8 13.5 26.8 14.5C26.8 16.5 26 18 25 19.5C24 21 23 22.5 23 22.5C23 22.5 22 21 21 19.5C20 18 19.2 16.5 19.2 14.5C19.2 13.5 19.5 12.5 20 12C20.5 11.5 21.5 11 22 11C22.5 11 21.5 11.5 22 12Z" fill="#FCA5A5"/>

  <!-- Oven Mitt Fingers -->
  <path d="M16 18C16 17.4477 16.4477 17 17 17H31C31.5523 17 32 17.4477 32 18V22C32 22.5523 31.5523 23 31 23H17C16.4477 23 16 22.5523 16 22V18Z" fill="#F97316"/>

  <!-- Oven Mitt Thumb -->
  <path d="M20 22C20 21.4477 20.4477 21 21 21H25C25.5523 21 26 21.4477 26 22V26C26 26.5523 25.5523 27 25 27H21C20.4477 27 20 26.5523 20 26V22Z" fill="#F97316"/>

  <!-- Oven Mitt Stitching -->
  <path d="M24 26L24 30" stroke="#EA580C" stroke-width="1" stroke-linecap="round"/>
  <path d="M20 30L28 30" stroke="#EA580C" stroke-width="1" stroke-linecap="round"/>

  <!-- Heart Sparkle -->
  <circle cx="28" cy="10" r="1" fill="#FEF3C7"/>
  <circle cx="20" cy="10" r="0.8" fill="#FEF3C7"/>
</svg>
